# xmcd CD database file
#
# Track frame offsets:
#	150
#	32151
#	83209
#	128155
#	153981
#	175426
#	202889
#	236947
#
# Disc length: 3529 seconds
#
# Revision: 0
# Processed by: cddbd v1.5.1PL0 Copyright (c) Steve Scherf et al.
# Submitted via: CDex 1.51
#
DISCID=660dc708
DTITLE=Pat Metheny - Artists in Residence Project [CD2]
DYEAR=1991
DGENRE=Jazz
TTITLE0=(It's Just) Talk (Metheny)
TTITLE1=80-81 (Metheny)
TTITLE2=Two Folk Songs - 1st (Metheny)
TTITLE3=Anthropology (Gillespie/Parker)
TTITLE4=Silhouette (Peter Herbolzheimer)
TTITLE5=(Cross The) Heartland (Metheny/Mays)
TTITLE6=The Mixolydian Highlander (Herbolzheimer)
TTITLE7=Foot (John Clayton)
EXTD=YEAR: 1991
EXTT0=
EXTT1=
EXTT2=
EXTT3=
EXTT4=
EXTT5=
EXTT6=
EXTT7=
PLAYORDER=
